<svg xmlns="http://www.w3.org/2000/svg" xmlns:xlink="http://www.w3.org/1999/xlink" viewBox="0 0 630 630"><defs><style>.cls-1{fill:url(#linear-gradient);}.cls-2{fill:url(#linear-gradient-2);}</style><linearGradient id="linear-gradient" x1="22.46" y1="470.21" x2="579.12" y2="174.87" gradientUnits="userSpaceOnUse"><stop offset="0" stop-color="#c33"/><stop offset="1" stop-color="#7950f2"/></linearGradient><linearGradient id="linear-gradient-2" x1="301.04" y1="315" x2="328.96" y2="315" xlink:href="#linear-gradient"/></defs><g id="Layer_2" data-name="Layer 2"><g id="Layer_1-2" data-name="Layer 1"><path class="cls-1" d="M605.25,192.39A316.08,316.08,0,1,0,630,315,314,314,0,0,0,605.25,192.39ZM315,577.12a237.17,237.17,0,0,1-102.09-15.64c-2.08-.71-4-1.64-6.07-2.46l-6.05-2.54-1.51-.64-1.48-.72-2.94-1.45-5.89-2.9-1.46-.72-1.44-.8-2.87-1.59-5.74-3.18c-1-.52-1.91-1.09-2.83-1.68l-2.79-1.72-5.59-3.46A252.44,252.44,0,0,1,92.4,463.74l-3.47-5.59-1.72-2.79c-.58-.92-1.17-1.86-1.67-2.82l-3.19-5.75-1.58-2.87-.8-1.44L79.24,441l-2.9-5.89-1.45-2.94c-.23-.49-.49-1-.71-1.48l-.64-1.51-2.55-6c-.82-2-1.74-4-2.45-6.08A237.59,237.59,0,0,1,52.88,315h.7A261.88,261.88,0,0,0,315,576.42Zm0-43.63a194.12,194.12,0,0,1-85.4-12.33c-1.74-.58-3.39-1.34-5.09-2l-5.07-2.1c-.85-.34-1.68-.72-2.5-1.14l-2.46-1.2-4.94-2.41-1.23-.6-1.2-.67-2.41-1.31-4.81-2.66c-.81-.42-1.6-.9-2.37-1.38l-2.34-1.44-4.7-2.88a209.29,209.29,0,0,1-61.81-61.85l-2.88-4.69-1.44-2.34c-.48-.77-1-1.55-1.4-2.36l-2.64-4.82-1.33-2.4-.65-1.21-.61-1.23-2.41-4.94-1.2-2.46c-.2-.41-.41-.82-.6-1.24l-.53-1.26-2.1-5.07c-.68-1.7-1.45-3.35-2-5.09A194.35,194.35,0,0,1,96.51,315h.69A218.3,218.3,0,0,0,315,532.8Zm0-43.63a151.37,151.37,0,0,1-68.7-9c-1.4-.45-2.74-1.06-4.11-1.6l-4.09-1.66a21.42,21.42,0,0,1-2-.9l-2-.95-4-1.93c-2.65-1.32-5.2-2.78-7.8-4.18s-5.06-3.05-7.6-4.56a166,166,0,0,1-49.78-49.8c-1.52-2.54-3.1-5-4.56-7.59s-2.86-5.16-4.18-7.8l-1.92-4c-.62-1.35-1.33-2.63-1.85-4l-1.67-4.09c-.53-1.37-1.14-2.71-1.59-4.11a151.46,151.46,0,0,1-9-68.69h.69A174.71,174.71,0,0,0,315,489.17Zm0-53.57A121.29,121.29,0,1,1,436.29,315,121.43,121.43,0,0,1,315,436.29ZM489.86,315h-.69A174.71,174.71,0,0,0,315,140.83v-.69a151.37,151.37,0,0,1,68.7,9c1.4.45,2.74,1.06,4.11,1.6l4.09,1.66a21.42,21.42,0,0,1,2,.9l2,.95,4,1.93c2.65,1.32,5.2,2.78,7.8,4.18s5.06,3,7.6,4.56a166,166,0,0,1,49.78,49.8c1.52,2.54,3.1,5,4.56,7.59s2.86,5.16,4.18,7.8l1.92,4c.62,1.35,1.33,2.63,1.85,4l1.67,4.09c.53,1.37,1.14,2.71,1.59,4.11A151.46,151.46,0,0,1,489.86,315Zm43.63,0h-.69A218.3,218.3,0,0,0,315,97.2v-.69a194.12,194.12,0,0,1,85.4,12.33c1.74.58,3.39,1.34,5.09,2l5.07,2.1c.85.34,1.68.72,2.5,1.14l2.46,1.2,4.94,2.41,1.23.6,1.2.67,2.41,1.31,4.81,2.66c.81.42,1.6.9,2.37,1.38l2.34,1.44,4.7,2.88a209.29,209.29,0,0,1,61.81,61.85l2.88,4.69,1.44,2.34c.48.77,1,1.55,1.4,2.36l2.64,4.82,1.33,2.4.65,1.21.61,1.23,2.41,4.94,1.2,2.46c.2.41.41.82.6,1.24l.53,1.26,2.1,5.07c.68,1.7,1.45,3.35,2,5.09A194.35,194.35,0,0,1,533.49,315Zm43.63,0h-.7A261.88,261.88,0,0,0,315,53.58v-.7A237.17,237.17,0,0,1,417.09,68.52c2.08.71,4.05,1.64,6.07,2.46l6,2.54,1.51.64,1.48.72,2.94,1.45,5.89,2.9,1.46.72,1.44.8,2.87,1.59,5.74,3.18c1,.52,1.9,1.09,2.83,1.68l2.79,1.72,5.59,3.46a252.44,252.44,0,0,1,73.85,73.88l3.47,5.59,1.72,2.79c.58.92,1.17,1.86,1.67,2.82l3.19,5.75,1.58,2.87.8,1.44.73,1.46,2.9,5.89,1.45,2.94c.23.49.49,1,.71,1.48l.64,1.51,2.55,6c.82,2,1.74,4,2.45,6.08A237.59,237.59,0,0,1,577.12,315Z"/><path class="cls-2" d="M315,301a14,14,0,1,0,14,14A14,14,0,0,0,315,301Zm0,18a4.06,4.06,0,1,1,4.06-4.06A4.08,4.08,0,0,1,315,319.06Z"/></g></g></svg>