<svg width="632" height="632" viewBox="0 0 632 632" fill="none" xmlns="http://www.w3.org/2000/svg">
<path fill-rule="evenodd" clip-rule="evenodd" d="M449.69 29.6734C520.7 62.8288 576.856 121.188 607.256 193.42C623.641 232.207 632.056 273.893 632 315.999C632 394.368 602.879 469.941 550.291 528.046C497.703 586.151 425.4 622.641 347.419 630.433C269.439 638.225 191.345 616.763 128.3 570.212C65.254 523.662 21.7553 455.345 6.24856 378.526C-9.25816 301.707 4.33355 221.866 44.3849 154.504C84.4362 87.1428 148.089 37.0672 222.986 13.9995C297.883 -9.0682 378.68 -3.48207 449.69 29.6734ZM249.712 416.822C269.653 430.146 293.097 437.258 317.08 437.258C349.228 437.221 380.05 424.434 402.782 401.701C425.515 378.969 438.302 348.147 438.339 315.999C438.339 292.016 431.227 268.572 417.903 248.631C404.579 228.69 385.641 213.148 363.484 203.97C341.327 194.792 316.945 192.391 293.423 197.07C269.902 201.749 248.295 213.297 231.337 230.256C214.378 247.214 202.83 268.82 198.151 292.342C193.472 315.864 195.873 340.246 205.051 362.403C214.229 384.56 229.771 403.498 249.712 416.822ZM49.7075 317.04C49.4733 321.467 49.3547 325.925 49.3547 330.41C49.3547 467.924 160.832 579.401 298.346 579.401C298.683 579.401 299.021 579.401 299.358 579.399C170.748 552.221 70.6149 447.852 49.7075 317.04ZM584.645 299.59C584.645 304.075 584.527 308.533 584.292 312.96C563.385 182.148 463.252 77.7791 334.642 50.6008C334.979 50.5995 335.317 50.5988 335.654 50.5988C473.168 50.5988 584.645 162.076 584.645 299.59ZM302.898 526.33C200.103 504.607 120.068 421.186 103.358 316.631C103.17 320.169 103.076 323.732 103.076 327.317C103.076 437.23 192.177 526.331 302.09 526.331C302.36 526.331 302.629 526.331 302.898 526.33ZM530.924 302.683C530.924 306.268 530.83 309.831 530.642 313.369C513.932 208.814 433.897 125.393 331.102 103.67C331.371 103.669 331.64 103.669 331.91 103.669C441.823 103.669 530.924 192.77 530.924 302.683ZM152.218 316.258C152.073 318.987 152 321.735 152 324.5C152 409.276 220.724 478 305.5 478C305.708 478 305.916 478 306.124 477.999C226.837 461.244 165.107 396.901 152.218 316.258ZM482 305.5C482 308.265 481.927 311.013 481.782 313.742C468.893 233.099 407.163 168.756 327.876 152.001C328.084 152 328.292 152 328.5 152C413.276 152 482 220.724 482 305.5Z" fill="url(#paint0_linear_1_2)"/>
<defs>
<linearGradient id="paint0_linear_1_2" x1="24.6145" y1="471.169" x2="581.133" y2="175.905" gradientUnits="userSpaceOnUse">
<stop stop-color="#CC3333"/>
<stop offset="1" stop-color="#7950F2"/>
</linearGradient>
</defs>
</svg>
